<?xml version="1.0" standalone="no"?><!DOCTYPE svg PUBLIC "-//W3C//DTD SVG 1.1//EN" "http://www.w3.org/Graphics/SVG/1.1/DTD/svg11.dtd"><svg t="1557584053177" class="icon" style="" viewBox="0 0 1024 1024" version="1.1" xmlns="http://www.w3.org/2000/svg" p-id="4539" xmlns:xlink="http://www.w3.org/1999/xlink" width="128" height="128"><defs><style type="text/css"></style></defs><path d="M335.271 887.139c347.375-112.538 605.921-225.806 607.287-265.25 1.106-31.942-226.734 12.697-187.788 1.536 118.702-34.031 206.698-48.715 221.238-18.985 25.211 51.534-152.132 162.051-396.11 246.845-243.992 84.788-476.18 118.737-501.391 67.195C60.464 881.596 182.77 811.732 314.32 761.494c24.42-9.325-201.161 110.865-199.147 134.513 2.915 34.18 181.883 3.516 220.098-8.868z" fill="#2c2c2c" p-id="4540"></path><path d="M995.88 219.819C952.348 112.209 856.338 59.453 856.338 59.453s-41.97-11.434-76.752-6.976c-27.546 3.536-40.004 20.848-55.822 34.857-5.632 5.003 4.615 42.44 27.914 48.81 11.626 3.175 20.624-14.602 27.908-13.947 9.072 0.813 15.469 12.22 20.937 6.977 32.038-30.788 33.888-27.504 62.792 0 15.865 15.087 14.848 63.4 20.937 90.638 6.062 27.17 26.235 47.227 27.908 55.787 6.178 31.52-38.51 4.008-76.753 13.94-28.35 7.373-45.766 50.224-69.775 48.818-82.527-4.854-105.834 98.96-160.481 62.75-10.165-6.744-39.28-30.794-43.595-54.346 0.075-4.185-2.192-21.914-2.11-24.98 0.287-10.226 17.797-18.295 17.797-18.295s7.612 5.68 13.954-6.977c6.43-12.847 12.882-43.246 3.304-52.817-26.603-27.498-6.035-34.864-10.137-58.007-1.25-7.024-5.011-17.817-13.449-26.521-13.776-14.213-32.092-19.272-47.561-20.665-15.9-3.174-53.815-7.611-76.39 15.695-36.264 37.437 13.755 54.866-20.945 90.747-8.226 13.947 0.54 36.004 6.977 48.865 6.349 12.67 13.96 6.977 13.96 6.977s9.23 11.332 9.305 24.187c0.041 6.826-0.355 24.746 0.43 29.737-4.212 27.99-27.49 37.062-37.662 43.806-54.668 36.25-77.981-67.686-160.55-62.825-24.023 1.413-41.438-41.486-69.803-48.859-38.263-9.953-82.964 17.593-76.786-13.96 1.673-8.56 21.845-28.652 27.921-55.842 6.09-27.28 5.072-75.64 20.944-90.747 28.918-27.532 30.768-30.823 62.826 0 5.468 5.256 11.865-6.165 20.944-6.984 7.284-0.655 16.282 17.142 27.921 13.96 23.307-6.382 33.56-43.86 27.921-48.865-15.817-14.029-28.282-31.361-55.842-34.904-34.795-4.472-76.78 6.983-76.78 6.983S71.695 109.295 28.14 217.027c-15.77 39-30.064 56.176-27.92 76.786 2.853 27.477 28.419 55.665 55.842 97.724 42.687 65.474 104.707 69.802 104.707 69.802s40.85 5.823 62.826 41.882c11.366 18.644 15.128 57.378 41.881 97.724 24.064 36.277 76.903 61.269 90.747 97.723 24.48 64.478 20.938 139.606 20.938 139.606l146.589-48.866 0.006-0.99 123.324-38.782s-3.597 15.702 20.87-48.708c13.837-36.413 66.655-61.379 90.705-97.608 26.747-40.304 30.515-78.998 41.868-97.621 21.968-36.018 62.799-41.834 62.799-41.834s62-4.328 104.66-69.727c27.408-42.019 52.967-70.172 55.821-97.622 2.123-20.582-12.158-37.73-27.921-76.697z m-475.367 697.01c96.4-26.475 203.892-60.908 303.377-122.799 112.558-60.204 184.64-129.406 176.182-128.867 0 0 9.688 26.781-16.24 53.234-57.044 58.205-226.509 154.515-393.517 199.12-294.106 78.541-463.824 54.58-463.824 54.58s171.015 5.966 394.022-55.269z" fill="#2c2c2c" p-id="4541"></path></svg>